# AST/ASF file generated using VICON BodyLanguage
# -----------------------------------------------
:version 1.10
:name VICON
:units
  mass 1.0
  length 0.45
  angle deg
:documentation
   .ast/.asf automatically generated from VICON data using
   VICON BodyBuilder and BodyLanguage model FoxedUp or BRILLIANT.MOD
:root
   order TX TY TZ RX RY RZ
   axis XYZ
   position 0 0 0  
   orientation 0 0 0 
:bonedata
  begin
     id 1 
     name lhipjoint
     direction 0.61522 -0.761478 0.204097 
     length 2.55743 
     axis 0 0 0  XYZ
  end
  begin
     id 2 
     name lfemur
     direction 0.34202 -0.939693 0  
     length 7.61162  
     axis 0 0 20  XYZ
    dof rx ry rz
    limits (-160.0 20.0)
           (-70.0 70.0)
           (-60.0 70.0)
  end
  begin
     id 3 
     name ltibia
     direction 0.34202 -0.939693 0   
     length 8.12393   
     axis 0 0 20   XYZ
    dof rx
    limits (-10.0 170.0)
  end
  begin
     id 4 
     name lfoot
     direction 0.0841971 -0.23133 0.969225   
     length 2.3572   
     axis -90 7.62852e-016 20   XYZ
    dof rx rz
    limits (-45.0 90.0)
           (-70.0 20.0)
  end
  begin
     id 5 
     name ltoes
     direction 1.53562e-011 -4.22209e-011 1   
     length 1.17993   
     axis -90 7.62852e-016 20   XYZ
    dof rx
    limits (-90.0 20.0)
  end
  begin
     id 6 
     name rhipjoint
     direction -0.625247 -0.75382 0.202044   
     length 2.58341  
     axis 0 0 0  XYZ 
  end
  begin
     id 7 
     name rfemur
     direction -0.34202 -0.939693 0   
     length 7.42147   
     axis 0 0 -20   XYZ
    dof rx ry rz
    limits (-160.0 20.0)
           (-70.0 70.0)
           (-70.0 60.0)
  end
  begin
     id 8 
     name rtibia
     direction -0.34202 -0.939693 0   
     length 8.20893   
     axis 0 0 -20   XYZ
    dof rx
    limits (-10.0 170.0)
 end
 begin
     id 9 
     name rfoot
     direction -0.124331 -0.341598 0.931586   
     length 2.45604  
     axis -90 -7.62852e-016 -20   XYZ
    dof rx rz
    limits (-45.0 90.0)
           (-20.0 70.0)
  end
  begin
     id 10 
     name rtoes
     direction -1.5353e-011 -4.2199e-011 1   
     length 1.21323   
     axis -90 -7.62852e-016 -20   XYZ
    dof rx
    limits (-90.0 20.0)
  end
  begin
     id 11 
     name lowerback
     direction -0.0218484 0.994884 -0.0986303   
     length 2.00523   
     axis 0 0 0   XYZ
    dof rx ry rz
    limits (-20.0 45.0)
           (-30.0 30.0)
           (-30.0 30.0)
  end
  begin
     id 12 
     name upperback
     direction -0.0097305 0.999717 -0.0217111   
     length 2.01352   
     axis 0 0 0   XYZ
    dof rx ry rz
    limits (-20.0 45.0)
           (-30.0 30.0)
           (-30.0 30.0)
  end
  begin
     id 13 
     name thorax
     direction -0.000928262 0.999699 0.0245198   
     length 2.02938   
     axis 0 0 0   XYZ
    dof rx ry rz
    limits (-20.0 45.0)
           (-30.0 30.0)
           (-30.0 30.0)
  end
  begin
     id 14 
     name lowerneck
     direction -0.0307979 0.998024 0.0547665   
     length 1.77263   
     axis 0 0 0   XYZ
    dof rx ry rz
    limits (-20.0 45.0)
           (-30.0 30.0)
           (-30.0 30.0)
  end
  begin
     id 15 
     name upperneck
     direction 0.0531587 0.996611 -0.0627734   
     length 1.77971   
     axis 0 0 0   XYZ
    dof rx ry rz
    limits (-20.0 45.0)
           (-30.0 30.0)
           (-30.0 30.0)
  end
  begin
     id 16
     name head
     direction 0.0213833 0.999404 -0.0271147  
     length 1.78263  
     axis 0 0 0   XYZ
    dof rx ry rz
    limits (-20.0 45.0)
           (-30.0 30.0)
           (-30.0 30.0)
  end
  begin
     id 17 
     name lclavicle
     direction 0.940017 0.332249 -0.0773233  
     length 3.73315  
     axis 0 0 0   XYZ
    dof ry rz
    limits (-20.0 10.0)
           (0.0 20.0)
  end
  begin
     id 18 
     name lhumerus
     direction 1 -4.48944e-011 7.52288e-028   
     length 5.40188   
     axis 180 -30 -90   XYZ
    dof rx ry rz
    limits (-60.0 90.0)
           (-90.0 90.0)
           (-90.0 90.0)
  end
  begin
     id 19
     name lradius
     direction 1 -4.48988e-011 1.48381e-027   
     length 3.68559   
     axis 180 -30 -90   XYZ
    dof rx
    limits (-10.0 170.0)
  end
  begin
     id 20
     name lwrist
     direction 1 -4.48925e-011 2.56952e-028   
     length 1.84279   
     axis -5.12785e-016 90 90   XYZ
    dof ry
    limits (-180.0 0.0)
 end
  begin
     id 21 
     name lhand
     direction 1 -4.49009e-011 5.13905e-028   
     length 0.61753   
     axis -3.27915e-016 90 90   XYZ
    dof rx rz
    limits (-90.0 90.0)
           (-45.0 45.0)
  end
  begin
     id 22 
     name lfingers
     direction 1 -4.49012e-011 1.02781e-027   
     length 0.497868   
     axis -6.5583e-016 90 90   XYZ
    dof rx
    limits (0.0 90.0)
  end
  begin
     id 23
     name lthumb
     direction 0.707107 -6.34987e-011 0.707107   
     length 0.714842   
     axis -90 45 2.85299e-015   XYZ
    dof rx rz
    limits (-45.0 45.0)
           (-45.0 45.0)
  end
  begin
     id 24 
     name rclavicle
     direction -0.9009 0.425937 -0.0834057   
     length 3.27864  
     axis 0 0 0   XYZ 
    dof ry rz
    limits (-10.0 20.0)
           (-20.0 0.0)
  end
  begin
     id 25 
     name rhumerus
     direction -1 -4.48953e-011 -1.03572e-027  
     length 6.1067   
     axis 180 30 90   XYZ
    dof rx ry rz
    limits (-90.0 60.0)
           (-90.0 90.0)
           (-90.0 90.0)
  end
  begin
     id 26 
     name rradius
     direction -1 -4.48975e-011 1.20742e-027   
     length 3.63052   
     axis 180 30 90   XYZ
    dof rx
    limits (-10.0 170.0)
  end
  begin
     id 27 
     name rwrist
     direction -1 -4.49017e-011 2.56952e-028   
     length 1.81526   
     axis -5.12785e-016 -90 -90   XYZ
    dof ry
    limits (-180.0 0.0)
  end
  begin
     id 28
     name rhand
     direction -1 -4.48832e-011 5.13905e-028   
     length 0.583848   
     axis -3.27915e-016 -90 -90   XYZ
    dof rx rz
    limits (-90.0 90.0)
           (-45.0 45.0)
  end
  begin
     id 29
     name rfingers
     direction -1 -4.48729e-011 1.02781e-027   
     length 0.470713   
     axis -6.5583e-016 -90 -90   XYZ
    dof rx
    limits (0.0 90.0)
  end
  begin
     id 30
     name rthumb
     direction -0.707107 -6.34964e-011 0.707107   
     length 0.675852   
     axis -90 -45 -2.85299e-015   XYZ
    dof rx rz
    limits (-45.0 45.0)
           (-45.0 45.0)
  end
:hierarchy
  begin
    root lhipjoint rhipjoint lowerback
    lhipjoint lfemur
    lfemur ltibia
    ltibia lfoot
    lfoot ltoes
    rhipjoint rfemur
    rfemur rtibia
    rtibia rfoot
    rfoot rtoes
    lowerback upperback
    upperback thorax
    thorax lowerneck lclavicle rclavicle
    lowerneck upperneck
    upperneck head
    lclavicle lhumerus
    lhumerus lradius
    lradius lwrist
    lwrist lhand lthumb
    lhand lfingers
    rclavicle rhumerus
    rhumerus rradius
    rradius rwrist
    rwrist rhand rthumb
    rhand rfingers
  end

#!OML:ASF F:\VICON\USERDATA\INSTALL\rory3\rory3.ASF
:FULLY-SPECIFIED
:DEGREES
378
root -0.0595926 18.5517 -3.06823 -0.884224 -16.9826 1.23161
lowerback 6.45291 -0.557953 -4.38229
upperback 0.120868 -1.09748 -0.71581
thorax -3.42825 -0.480254 1.82168
lowerneck -10.4004 -2.571 -7.5609
upperneck 11.6933 -3.92569 11.8144
head 5.61395 -1.45227 4.67826
rclavicle -3.54955e-014 -7.55382e-015
rhumerus -12.8798 -23.8522 -35.206
rradius 109.722
rwrist 14.0223
rhand -36.7146 16.509
rfingers 7.12502
rthumb -9.79928 -13.243
lclavicle -3.54955e-014 -7.55382e-015
lhumerus 7.55323 -31.6356 48.5304
lradius 86.2661
lwrist -4.87745
lhand -32.0875 9.90298
lfingers 7.12502
lthumb -5.33326 39.8159
rfemur -9.65541 24.2177 11.644
rtibia 26.6978
rfoot -17.021 -10.5964
rtoes -8.84475
lfemur -2.66268 1.25946 -13.4279
ltibia 22.7454
lfoot -17.4557 22.5329
ltoes -10.2922
379
root -0.0592739 18.5493 -3.07697 -0.91971 -16.6072 1.29266
lowerback 6.39269 -0.47956 -4.43016
upperback 0.251692 -0.989054 -0.710564
thorax -3.26472 -0.43107 1.84228
lowerneck -10.5095 -2.55775 -7.47789
upperneck 11.4676 -3.88358 11.7444
head 5.55607 -1.43236 4.64158
rclavicle -7.20222e-014 -1.78906e-014
rhumerus -11.9931 -23.3589 -35.7402
rradius 110.128
rwrist 13.4772
rhand -37.6264 15.926
rfingers 7.12502
rthumb -10.6789 -13.7826
lclavicle -7.20222e-014 -1.78906e-014
lhumerus 7.30998 -31.5528 48.4352
lradius 86.063
lwrist -5.1726
lhand -32.1617 10.1339
lfingers 7.12502
lthumb -5.40488 40.045
rfemur -9.66947 23.9755 11.6142
rtibia 26.8398
rfoot -17.0514 -10.7625
rtoes -9.09596
lfemur -2.81568 1.04534 -13.4745
ltibia 22.8596
lfoot -17.3157 22.3488
ltoes -10.4069
380
root -0.0614064 18.5457 -3.08369 -0.976633 -16.254 1.27097
lowerback 6.31716 -0.399596 -4.37896
upperback 0.400608 -0.869019 -0.677834
thorax -3.07584 -0.378174 1.83485
lowerneck -10.6157 -2.57078 -7.43238
upperneck 11.2906 -3.87022 11.6319
head 5.51543 -1.43028 4.59576
rclavicle -2.7072e-014 5.1684e-015
rhumerus -11.1019 -22.9942 -36.2608
rradius 110.487
rwrist 13.2855
rhand -38.0106 15.6754
rfingers 7.12502
rthumb -11.0495 -14.0137
lclavicle -2.7072e-014 5.1684e-015
lhumerus 7.054 -31.3672 48.4397
lradius 85.8964
lwrist -4.88655
lhand -31.7897 10.0884
lfingers 7.12502
lthumb -5.04565 40.0083
rfemur -9.59256 23.8065 11.714
rtibia 26.9609
rfoot -17.0937 -10.9765
rtoes -9.30561
lfemur -2.93607 0.863575 -13.4233
ltibia 23.0172
lfoot -17.1921 22.1429
ltoes -10.7084
381
root -0.0630768 18.5419 -3.08828 -1.06489 -15.8958 1.25255
lowerback 6.40639 -0.337994 -4.29258
upperback 0.446489 -0.783293 -0.648915
thorax -3.08446 -0.337024 1.80965
lowerneck -10.6581 -2.598 -7.43503
upperneck 11.1882 -3.88426 11.5565
head 5.49112 -1.44211 4.56912
rclavicle -1.21631e-014 -1.66979e-014
rhumerus -10.2849 -22.5798 -36.7221
rradius 110.791
rwrist 13.348
rhand -37.7922 16.1122
rfingers 7.12502
rthumb -10.8389 -13.5881
lclavicle -1.21631e-014 -1.66979e-014
lhumerus 6.59151 -31.3194 48.5117
lradius 85.7143
lwrist -4.7385
lhand -31.7396 9.94908
lfingers 7.12502
lthumb -4.99728 39.8702
rfemur -9.46472 23.6308 11.8299
rtibia 27.0827
rfoot -17.1798 -11.233
rtoes -9.59094
lfemur -3.04948 0.730981 -13.3709
ltibia 23.2095
lfoot -17.0609 21.936
ltoes -11.1787
382
root -0.0639345 18.5404 -3.09681 -1.05464 -15.5966 1.171
lowerback 6.47304 -0.279364 -4.12899
upperback 0.46967 -0.695827 -0.637621
thorax -3.10496 -0.295574 1.72248
lowerneck -10.6932 -2.61042 -7.35788
upperneck 11.0438 -3.89187 11.5075
head 5.45115 -1.44664 4.53761
rclavicle 2.13197e-014 -1.55052e-014
rhumerus -9.48991 -22.0942 -37.2168
rradius 111.108
rwrist 13.2499
rhand -37.8999 16.5719
rfingers 7.12502
rthumb -10.9427 -13.1229
lclavicle 2.13197e-014 -1.55052e-014
lhumerus 6.10047 -31.344 48.4644
lradius 85.5025
lwrist -4.7172
lhand -31.8868 9.84162
lfingers 7.12502
lthumb -5.13939 39.7593
rfemur -9.48999 23.4951 11.9773
rtibia 27.2247
rfoot -17.1711 -11.5094
rtoes -9.89642
lfemur -3.27791 0.687838 -13.2469
ltibia 23.4128
lfoot -16.7601 21.8239
ltoes -11.8691
383
root -0.0646943 18.5385 -3.10525 -1.03413 -15.3772 1.01964
lowerback 6.55288 -0.212265 -3.88601
upperback 0.486091 -0.591541 -0.616379
thorax -3.141 -0.246399 1.59952
lowerneck -10.7615 -2.60001 -7.31556
upperneck 10.9604 -3.87487 11.5199
head 5.43509 -1.43474 4.53466
rclavicle -1.98163e-014 6.36111e-015
rhumerus -8.74128 -21.6005 -37.7082
rradius 111.45
rwrist 13.34
rhand -38.2259 16.6533
rfingers 7.12502
rthumb -11.2572 -13.0246
lclavicle -1.98163e-014 6.36111e-015
lhumerus 5.53192 -31.2945 48.4878
lradius 85.3183
lwrist -4.54207
lhand -31.8246 9.5502
lfingers 7.12502
lthumb -5.0794 39.4693
rfemur -9.53746 23.4153 12.1933
rtibia 27.3979
rfoot -17.1892 -11.7046
rtoes -9.95614
lfemur -3.44175 0.612567 -13.0531
ltibia 23.5976
lfoot -16.8472 21.6015
ltoes -11.2819
384
root -0.0654883 18.5353 -3.11377 -1.1002 -15.1063 1.02538
lowerback 6.73378 -0.150731 -3.83365
upperback 0.453286 -0.51461 -0.595425
thorax -3.28092 -0.205749 1.58632
lowerneck -10.7698 -2.58703 -7.40459
upperneck 10.9721 -3.85425 11.6041
head 5.44138 -1.42225 4.57891
rclavicle -7.31155e-014 -6.75868e-015
rhumerus -8.11197 -21.0309 -38.0253
rradius 111.827
rwrist 13.5072
rhand -38.2733 16.4112
rfingers 7.12502
rthumb -11.3029 -13.2642
lclavicle -7.31155e-014 -6.75868e-015
lhumerus 4.9348 -31.2798 48.6387
lradius 85.0962
lwrist -4.47402
lhand -31.9011 8.96872
lfingers 7.12502
lthumb -5.15327 38.8861
rfemur -9.52948 23.2271 12.2499
rtibia 27.6016
rfoot -17.2497 -11.8279
rtoes -10.0183
lfemur -3.52801 0.552527 -13.028
ltibia 23.7608
lfoot -17.1025 21.1692
ltoes -9.88544
385
root -0.0666856 18.5326 -3.12206 -1.18355 -14.7792 1.10492
lowerback 6.95373 -0.112598 -3.90359
upperback 0.414164 -0.479642 -0.560419
thorax -3.44591 -0.183525 1.66017
lowerneck -10.8568 -2.58441 -7.41179
upperneck 11.0704 -3.84438 11.5434
head 5.48448 -1.41726 4.56224
rclavicle -3.14577e-014 6.36111e-015
rhumerus -7.44365 -20.5409 -38.2924
rradius 112.246
rwrist 13.4961
rhand -37.8853 16.393
rfingers 7.12502
rthumb -10.9286 -13.3026
lclavicle -3.14577e-014 6.36111e-015
lhumerus 4.32103 -31.278 48.8419
lradius 84.8332
lwrist -4.5353
lhand -32.005 8.5127
lfingers 7.12502
lthumb -5.25356 38.4276
rfemur -9.50206 23.0285 12.2306
rtibia 27.8117
rfoot -17.3861 -11.9681
rtoes -9.95758
lfemur -3.63562 0.259685 -13.1127
ltibia 23.9221
lfoot -16.9941 21.0712
ltoes -9.94103
386
root -0.0689733 18.5293 -3.12879 -1.22332 -14.5184 1.10385
lowerback 7.03361 -0.0456608 -3.84904
upperback 0.470431 -0.388214 -0.548566
thorax -3.4378 -0.139781 1.63326
lowerneck -11.0333 -2.62842 -7.35177
upperneck 11.0704 -3.89619 11.484
head 5.51789 -1.43819 4.52778
rclavicle -9.06955e-016 -1.39149e-014
rhumerus -6.71067 -20.217 -38.6664
rradius 112.668
rwrist 13.3655
rhand -37.757 16.3997
rfingers 7.12502
rthumb -10.8049 -13.3024
lclavicle -9.06955e-016 -1.39149e-014
lhumerus 3.86863 -31.2501 48.8954
lradius 84.6167
lwrist -4.60493
lhand -31.98 8.30469
lfingers 7.12502
lthumb -5.2294 38.2202
rfemur -9.50732 22.9174 12.2935
rtibia 28.0345
rfoot -17.5536 -12.1228
rtoes -9.73742
lfemur -3.75028 -0.20542 -13.1339
ltibia 24.0521
lfoot -16.7651 21.3359
ltoes -11.069
